<svg width="128" height="128" viewBox="0 0 128 128" fill="none" xmlns="http://www.w3.org/2000/svg">
  <rect width="128" height="128" rx="0" fill="#161616"/>
  <path d="M64 18C47.2 18 33.6 27.8 27.8 42.2C16.8 44.3 8.5 53.9 8.5 65.5C8.5 78.7 18.8 89.6 31.8 90.7C37.7 101.7 49.2 109 62.2 109H65.8C78.8 109 90.3 101.7 96.2 90.7C109.2 89.6 119.5 78.7 119.5 65.5C119.5 53.9 111.2 44.3 100.2 42.2C94.4 27.8 80.8 18 64 18Z" fill="#F4F4F4"/>
  <path d="M64 28C50.8 28 39.6 35.7 34.8 46.8C28 48 22.8 53.9 22.8 61.1C22.8 69.1 29.2 75.7 37.2 76.1C42.7 84.1 52.8 89.5 64 89.5C75.2 89.5 85.3 84.1 90.8 76.1C98.8 75.7 105.2 69.1 105.2 61.1C105.2 53.9 100 48 93.2 46.8C88.4 35.7 77.2 28 64 28Z" fill="#111111"/>
  <path d="M90 50C97.2 50 103 55.8 103 63C103 70.2 97.2 76 90 76H84L84.5 84L75 76H69C61.8 76 56 70.2 56 63C56 55.8 61.8 50 69 50H90Z" fill="#111111"/>
  <circle cx="82" cy="63" r="5.8" fill="#F4F4F4"/>
  <circle cx="61" cy="63" r="5.8" fill="#F4F4F4"/>
  <rect x="22" y="46" width="13" height="36" rx="6.5" fill="#F4F4F4"/>
  <rect x="93" y="46" width="13" height="36" rx="6.5" fill="#F4F4F4"/>
  <rect x="62.3" y="10" width="3.4" height="15" rx="1.7" fill="#F4F4F4"/>
  <circle cx="64" cy="8.5" r="6.5" fill="#F4F4F4"/>
</svg>
